HIERARCHY
ROOT Hips
{
	OFFSET 0.00000 0.00000 0.00000
	CHANNELS 6 Xposition Yposition Zposition Yrotation Zrotation Xrotation 
	JOINT Lumbar
	{
		OFFSET 0 0 0
		CHANNELS 3 Zrotation Xrotation Yrotation
		JOINT Neck
		{
			OFFSET 0.00 0.2701 0.00
			CHANNELS 3 Zrotation Xrotation Yrotation
			End Site
			{
				OFFSET 0.00 0.1379 0.00
			}
		}
		JOINT RightShoulder
		{
			OFFSET 0.0119 0.2289 0.1181
			CHANNELS 3 Zrotation Xrotation Yrotation
			JOINT RightElbow
			{
				OFFSET 0.00 -0.1475 0.00
				CHANNELS 2 Zrotation Yrotation
				JOINT RightWrist
				{
					OFFSET 0.00 -0.1605 0.00
					CHANNELS 2 Zrotation Xrotation
					End Site
					{
						OFFSET 0.0040 -0.1068 0.0006
					}
				}
			}
		}
		JOINT LeftShoulder
		{
			OFFSET 0.0119 0.2289 -0.1181
			CHANNELS 3 Zrotation Xrotation Yrotation
			JOINT LeftElbow
			{
				OFFSET 0.00 -0.1475 0.00
				CHANNELS 2 Zrotation Yrotation
				JOINT LeftWrist
				{
					OFFSET 0.00 -0.1605 0.00
					CHANNELS 2 Zrotation Xrotation
					End Site
					{
						OFFSET 0.0040 -0.1068 -0.0006
					}
				}
			}
		}
	}
	JOINT RightHip
	{
		OFFSET 0.0316 -0.0424 0.0458
		CHANNELS 3 Zrotation Xrotation Yrotation
		JOINT RightKnee
		{
			OFFSET 0.00 -0.2438 0.00
			CHANNELS 1 Zrotation
			JOINT RightAnkle
			{
				OFFSET 0.00 -0.2449 0.00
				CHANNELS 3 Zrotation Xrotation Yrotation
				End Site
				{
					OFFSET 0.1237 -0.0542 0.0051
				}
			}
		}
	}
	JOINT LeftHip
	{
		OFFSET 0.0316 -0.0424 -0.0458
		CHANNELS 3 Zrotation Xrotation Yrotation
		JOINT LeftKnee
		{
			OFFSET 0.00 -0.2438 0.00
			CHANNELS 1 Zrotation
			JOINT LeftAnkle
			{
				OFFSET 0.00 -0.2449 0.00
				CHANNELS 3 Zrotation Xrotation Yrotation
				End Site
				{
					OFFSET 0.1237 -0.0542 -0.0051
				}
			}
		}
	}
}
MOTION
Frames: 16
Frame Time: 0.02
-0.00209 -0.00092 -0.00252 22.44732 -22.22779 -9.52884 41.46301 1.08159 -3.76506 -13.72707 -1.0966 -0.38862 -27.36593 -8.04676 -9.95816 29.0775 90.31298 6.55475 -0.50615 -32.06647 13.44679 4.24653 32.38011 -96.64015 14.98494 0.54415 37.87466 -2.23208 -1.11227 -18.38238 -9.46901 -4.802 -3.32819 38.36874 4.82234 4.09271 -27.19806 -8.90872 5.30238 3.60388
-0.00361 -0.00106 -0.0035 22.48147 -22.11737 -9.6714 41.2168 1.08074 -4.0472 -13.59867 -1.2044 -0.38956 -26.83166 -8.2641 -9.36351 29.73985 90.19529 6.65719 -0.53136 -30.98427 13.82341 3.40922 32.96469 -96.50109 14.92792 0.56633 38.23352 -2.37599 -1.59105 -19.07471 -9.52114 -4.76634 -3.31152 38.31795 4.74316 4.02717 -27.16677 -8.89142 5.29866 3.60042
-0.00512 -0.00119 -0.00448 22.51572 -22.00722 -9.81371 40.97117 1.07983 -4.32894 -13.47036 -1.31194 -0.3905 -26.29842 -8.48085 -8.76998 30.40076 90.07812 6.75949 -0.55654 -29.90422 14.19954 2.57371 33.54809 -96.36226 14.87085 0.58845 38.592 -2.51926 -2.06921 -19.76606 -9.57301 -4.73077 -3.29487 38.26723 4.66427 3.96199 -27.13552 -8.87412 5.29493 3.59694
-0.00664 -0.00133 -0.00546 22.54979 -21.89712 -9.95586 40.72569 1.07898 -4.61028 -13.34232 -1.41942 -0.39144 -25.76568 -8.69755 -8.17703 31.06118 89.96083 6.86164 -0.58168 -28.82516 14.57511 1.73883 34.13098 -96.22359 14.81397 0.61056 38.94987 -2.66272 -2.54666 -20.4565 -9.62496 -4.69522 -3.27825 38.21659 4.58534 3.89668 -27.10432 -8.85687 5.29122 3.59348
-0.00816 -0.00147 -0.00644 22.58369 -21.78678 -10.09818 40.47973 1.07822 -4.89185 -13.21427 -1.52714 -0.39238 -25.23218 -8.91479 -7.58327 31.7228 89.84294 6.96386 -0.60682 -27.74439 14.95092 0.90252 34.71477 -96.08481 14.75724 0.63274 39.30784 -2.80684 -3.02436 -21.14733 -9.67723 -4.65959 -3.2616 38.16591 4.50609 3.83094 -27.07312 -8.83964 5.28753 3.59003
-0.00967 -0.00161 -0.00742 22.61869 -21.67707 -10.24048 40.23481 1.07697 -5.17391 -13.08539 -1.63429 -0.39331 -24.69952 -9.13049 -6.99029 32.38214 89.72725 7.06631 -0.63206 -26.66596 15.32768 0.06877 35.29729 -95.94588 14.69944 0.65471 39.66736 -2.94831 -3.50347 -21.83961 -9.72824 -4.62412 -3.24496 38.11511 4.42797 3.76692 -27.04176 -8.82219 5.28371 3.58648
-0.0112 -0.00174 -0.0084 22.65139 -21.56617 -10.38265 39.98802 1.07673 -5.45467 -12.95841 -1.74248 -0.39425 -24.1657 -9.34909 -6.39633 33.04538 89.60736 7.16821 -0.6571 -25.584 15.70211 -0.76932 35.88178 -95.80734 14.64386 0.67709 40.02338 -3.09508 -3.97927 -22.52861 -9.78172 -4.58838 -3.22832 38.0646 4.34766 3.69954 -27.01075 -8.8052 5.28016 3.58316
-0.01271 -0.00188 -0.00938 22.68632 -21.45644 -10.52495 39.74303 1.07553 -5.73665 -12.82952 -1.84969 -0.39519 -23.63307 -9.56496 -5.80336 33.70495 89.49118 7.27055 -0.68229 -24.50535 16.07869 -1.60324 36.46438 -95.66853 14.58623 0.69908 40.38259 -3.23672 -4.45801 -23.21995 -9.83294 -4.55286 -3.21167 38.01384 4.26937 3.63521 -26.97943 -8.78778 5.27635 3.57961
-0.0142 -0.00202 -0.01035 22.7236 -21.34779 -10.66744 39.49981 1.07325 -6.02025 -12.6988 -1.95581 -0.39613 -23.10107 -9.77781 -5.21087 34.36074 89.38015 7.37379 -0.70783 -23.42983 16.45818 -2.43323 37.04532 -95.52896 14.52603 0.72066 40.74612 -3.37308 -4.94115 -23.91737 -9.88132 -4.51774 -3.19506 37.96268 4.19353 3.57479 -26.94766 -8.76987 5.27225 3.57581
-0.01581 -0.00217 -0.01137 22.74621 -21.23186 -10.80898 39.2451 1.07748 -6.29492 -12.58014 -2.06857 -0.39707 -22.56295 -10.00902 -4.61339 35.04042 89.24133 7.47292 -0.73185 -22.33349 16.82183 -3.28938 37.63781 -95.39248 14.48042 0.7448 41.08611 -3.54278 -5.40144 -24.58951 -9.9458 -4.48071 -3.17839 37.91352 4.10353 3.49243 -26.91828 -8.75488 5.26993 3.57355
-0.01717 -0.00228 -0.01228 22.80048 -21.13198 -10.95241 39.01553 1.06779 -6.58808 -12.43511 -2.16707 -0.39801 -22.03941 -10.20081 -4.02801 35.66821 89.15995 7.58 -0.75875 -21.2831 17.21819 -4.08791 38.20454 -95.25032 14.40418 0.7634 41.47482 -3.64026 -5.90823 -25.30858 -9.97647 -4.44745 -3.16172 37.86036 4.04347 3.456 -26.88397 -8.73367 5.26377 3.56799
-0.01789 -0.00231 -0.01285 22.93692 -21.07112 -11.10201 38.84805 1.02104 -6.93518 -12.22407 -2.22795 -0.39894 -21.54232 -10.28891 -3.46319 36.16397 89.24835 7.71535 -0.79626 -20.3433 17.71109 -4.7469 38.71117 -95.08534 14.24176 0.76781 42.00648 -3.55296 -6.55856 -26.21041 -9.91207 -4.42686 -3.14601 37.79425 4.06589 3.55024 -26.83518 -8.69548 5.24759 3.55352
-0.01836 -0.0023 -0.0133 23.10602 -21.02736 -11.25322 38.70712 0.96009 -7.29996 -11.98523 -2.27416 -0.39987 -21.06252 -10.33653 -2.91318 36.60518 89.39273 7.85757 -0.83613 -19.45293 18.23536 -5.34436 39.18974 -94.91598 14.04902 0.7665 42.58535 -3.39067 -7.25286 -27.14906 -9.81413 -4.40968 -3.13014 37.72443 4.11832 3.68995 -26.78167 -8.651 5.22742 3.53569
-0.01891 -0.0023 -0.0138 23.26324 -20.97902 -11.4032 38.55853 0.90493 -7.65493 -11.75512 -2.32622 -0.40081 -20.58343 -10.39981 -2.3642 37.06525 89.50282 7.99234 -0.87318 -18.54954 18.74118 -5.95812 39.67454 -94.75334 13.87143 0.76714 43.13655 -3.25389 -7.91639 -28.036 -9.73303 -4.38934 -3.11364 37.65766 4.15683 3.80555 -26.7309 -8.60938 5.20873 3.51931
-0.01957 -0.00232 -0.01431 23.40802 -20.91708 -11.55576 38.39134 0.8526 -8.01862 -11.54195 -2.38204 -0.40174 -20.06754 -10.47476 -1.7811 37.55243 89.64806 8.14507 -0.91769 -17.60466 19.26577 -6.62191 40.18776 -94.57077 13.68774 0.77044 43.71408 -3.15304 -8.62469 -29.0719 -9.64512 -4.37557 -3.09998 37.58535 4.19663 3.93491 -26.67744 -8.56784 5.19151 3.50326
-0.01995 -0.0023 -0.01479 23.58647 -20.88775 -11.70276 38.26928 0.79091 -8.36686 -11.28626 -2.42612 -0.40267 -19.63323 -10.51555 -1.2743 37.96746 89.73627 8.26242 -0.94714 -16.76008 19.75746 -7.16575 40.63396 -94.42863 13.50989 0.76691 44.24798 -2.95968 -9.25123 -29.80475 -9.56344 -4.34922 -3.08053 37.52342 4.24079 4.04749 -26.62869 -8.52452 5.17021 3.48569
